<?xml version="1.0" encoding="utf-8"?>
<!-- Generator: Adobe Illustrator 23.0.1, SVG Export Plug-In . SVG Version: 6.00 Build 0)  -->
<svg version="1.1" id="Capa_1" xmlns="http://www.w3.org/2000/svg" xmlns:xlink="http://www.w3.org/1999/xlink" x="0px" y="0px"
	 viewBox="0 0 348.3 348.3" style="enable-background:new 0 0 348.3 348.3;" xml:space="preserve">
<style type="text/css">
	.st0{fill:#E8E8E8;}
</style>
<path class="st0" d="M5.4,5.4L5.4,5.4c-7.2,7.2-7.2,18.9,0,26.1l311.3,311.3c7.2,7.2,18.9,7.2,26.1,0l0,0c7.2-7.2,7.2-18.9,0-26.1
	L31.6,5.4C24.3-1.8,12.6-1.8,5.4,5.4z"/>
<path class="st0" d="M5.4,342.9L5.4,342.9c7.2,7.2,18.9,7.2,26.1,0L342.9,31.6c7.2-7.2,7.2-18.9,0-26.1l0,0
	c-7.2-7.2-18.9-7.2-26.1,0L5.4,316.7C-1.8,324-1.8,335.7,5.4,342.9z"/>
</svg>
