<?xml version="1.0" encoding="utf-8"?>
<!-- Generator: Adobe Illustrator 23.0.1, SVG Export Plug-In . SVG Version: 6.00 Build 0)  -->
<svg version="1.1" id="Calque_1" xmlns="http://www.w3.org/2000/svg" xmlns:xlink="http://www.w3.org/1999/xlink" x="0px" y="0px"
	 viewBox="0 0 100 34.1" style="enable-background:new 0 0 100 34.1;" xml:space="preserve">
<style type="text/css">
	.st0{fill-rule:evenodd;clip-rule:evenodd;fill:#FFFFFF;}
</style>
<path class="st0" d="M95.8,13.4H4.2C1.9,13.4,0,11.5,0,9.2v0C0,6.9,1.9,5,4.2,5h91.6c2.3,0,4.2,1.9,4.2,4.2v0
	C100,11.5,98.1,13.4,95.8,13.4z"/>
<path class="st0" d="M95.8,29.1H4.2c-2.3,0-4.2-1.9-4.2-4.2v0c0-2.3,1.9-4.2,4.2-4.2h91.6c2.3,0,4.2,1.9,4.2,4.2v0
	C100,27.3,98.1,29.1,95.8,29.1z"/>
</svg>
